<svg xmlns="http://www.w3.org/2000/svg" viewBox="0 0 512 512" role="img" aria-label="Pi Agent App icon">
  <path fill="#23454B" fill-rule="evenodd" d="
    M 408 49 L 378 29 L 341 12 L 322 6 L 292 0 L 219 0 L 201 3 L 197 5 L 185 7 L 167 13 L 133 29 L 118 38 L 92 58 L 69 81 L 58 95 L 41 121 L 26 152 L 15 189 L 11 210 L 9 228 L 9 257 L 11 274 L 16 299 L 24 326 L 40 360 L 57 386 L 76 408 L 76 411 L 65 445 L 45 501 L 46 506 L 51 511 L 57 511 L 128 475 L 138 471 L 153 462 L 170 469 L 199 477 L 240 483 L 272 483 L 303 479 L 326 474 L 363 460 L 377 453 L 396 441 L 425 418 L 444 398 L 455 384 L 470 361 L 481 339 L 492 309 L 501 263 L 501 217 L 499 211 L 497 194 L 491 170 L 483 147 L 481 145 L 475 130 L 464 111 L 446 86 L 418 57 Z
    M 135 172 L 150 157 L 157 152 L 174 144 L 188 141 L 386 141 L 390 143 L 394 149 L 394 176 L 392 182 L 385 188 L 333 189 L 332 191 L 331 208 L 331 269 L 332 282 L 334 288 L 333 289 L 337 309 L 341 322 L 345 330 L 352 338 L 359 342 L 367 344 L 370 348 L 370 360 L 369 364 L 364 372 L 360 376 L 351 381 L 342 383 L 331 383 L 317 379 L 311 375 L 299 362 L 299 360 L 295 354 L 289 334 L 285 304 L 285 252 L 287 220 L 290 199 L 289 188 L 240 189 L 240 197 L 238 206 L 238 217 L 228 294 L 226 298 L 226 304 L 220 331 L 212 357 L 206 369 L 194 381 L 185 384 L 177 384 L 166 381 L 160 377 L 156 373 L 152 366 L 151 354 L 152 350 L 168 320 L 179 291 L 180 284 L 187 262 L 189 248 L 191 244 L 193 227 L 196 216 L 197 203 L 199 197 L 199 188 L 184 189 L 177 191 L 167 196 L 153 209 L 146 220 L 142 224 L 138 226 L 129 226 L 124 224 L 119 219 L 118 217 L 118 207 L 125 188 Z
  "/>
</svg>
